<svg width="784" height="487" viewBox="0 0 784 487" fill="none" xmlns="http://www.w3.org/2000/svg">
<g clip-path="url(#clip0)">
<rect width="784" height="487" fill="white"/>
<path d="M489.63 134.96H635.63C663.244 134.96 685.63 157.346 685.63 184.96V334.071H489.63V134.96Z" fill="url(#paint0_linear)" fill-opacity="0.8"/>
<path d="M489.63 134.96H635.63C663.244 134.96 685.63 157.346 685.63 184.96V334.071H489.63V134.96Z" fill="url(#paint1_linear)" fill-opacity="0.8"/>
<path d="M574.622 226.444H584.396C590.536 226.35 595.365 224.733 598.88 221.593C602.396 218.452 604.154 214.21 604.154 208.866C604.154 196.866 598.177 190.866 586.224 190.866C580.599 190.866 576.099 192.483 572.724 195.718C569.396 198.905 567.732 203.147 567.732 208.444H554.724C554.724 200.335 557.677 193.608 563.583 188.264C569.536 182.874 577.083 180.179 586.224 180.179C595.88 180.179 603.45 182.733 608.935 187.843C614.419 192.952 617.161 200.054 617.161 209.147C617.161 213.6 615.708 217.913 612.802 222.085C609.943 226.257 606.029 229.374 601.06 231.436C606.685 233.218 611.021 236.171 614.068 240.296C617.161 244.421 618.708 249.46 618.708 255.413C618.708 264.6 615.708 271.889 609.708 277.28C603.708 282.671 595.904 285.366 586.294 285.366C576.685 285.366 568.857 282.764 562.81 277.561C556.81 272.358 553.81 265.491 553.81 256.96H566.888C566.888 262.35 568.646 266.663 572.161 269.897C575.677 273.132 580.388 274.749 586.294 274.749C592.575 274.749 597.38 273.108 600.708 269.827C604.036 266.546 605.7 261.835 605.7 255.694C605.7 249.741 603.872 245.171 600.216 241.983C596.56 238.796 591.286 237.155 584.396 237.061H574.622V226.444Z" fill="white"/>
<path d="M97.6302 126.354C97.6302 98.7401 120.016 76.3543 147.63 76.3543H293.63V334.071H97.6302V126.354Z" fill="url(#paint2_angular)" fill-opacity="0.8"/>
<path d="M97.6302 126.255C97.6302 98.6411 120.016 76.2553 147.63 76.2553H293.63V334.071H97.6302V126.255Z" fill="url(#paint3_linear)" fill-opacity="0.8"/>
<path d="M230.786 254.354H163.708V245.003L199.146 205.628C204.396 199.675 208.005 194.846 209.974 191.143C211.99 187.393 212.997 183.526 212.997 179.542C212.997 174.198 211.38 169.815 208.146 166.393C204.911 162.971 200.599 161.261 195.208 161.261C188.74 161.261 183.7 163.112 180.091 166.815C176.529 170.471 174.747 175.581 174.747 182.143H161.74C161.74 172.721 164.763 165.104 170.81 159.292C176.904 153.479 185.036 150.573 195.208 150.573C204.724 150.573 212.247 153.081 217.779 158.096C223.31 163.065 226.075 169.698 226.075 177.995C226.075 188.073 219.654 200.073 206.81 213.995L179.388 243.737H230.786V254.354Z" fill="white"/>
<path d="M293.63 49.9999C293.63 22.3857 316.016 0 343.63 0H439.63C467.244 0 489.63 22.3858 489.63 50V334.071H293.63V49.9999Z" fill="url(#paint4_linear)"/>
<path d="M293.63 49.9999C293.63 22.3857 316.016 0 343.63 0H439.63C467.244 0 489.63 22.3858 489.63 50V334.071H293.63V49.9999Z" fill="url(#paint5_linear)" fill-opacity="0.8"/>
<path d="M402.458 216H389.38V129.305L363.154 138.938V127.125L400.419 113.133H402.458V216Z" fill="white"/>
<path d="M0.0148926 384.071C0.0148926 356.457 22.4007 334.071 50.0149 334.071H261.333V487H50.0149C22.4007 487 0.0148926 464.614 0.0148926 437V384.071Z" fill="url(#paint6_linear)"/>
<path d="M153.659 425.688H167.862V436.305H153.659V460.071H140.581V436.305H93.9635V428.641L139.807 357.696H153.659V425.688ZM108.729 425.688H140.581V375.485L139.034 378.297L108.729 425.688Z" fill="white"/>
<path d="M261.348 334.071H522.667V487H261.348V334.071Z" fill="url(#paint7_linear)"/>
<path d="M366.055 408.743L371.258 357.696H423.711V369.719H382.297L379.203 397.633C384.219 394.68 389.914 393.204 396.289 393.204C405.617 393.204 413.023 396.297 418.508 402.485C423.992 408.626 426.734 416.946 426.734 427.446C426.734 437.993 423.875 446.313 418.156 452.407C412.484 458.454 404.539 461.477 394.32 461.477C385.273 461.477 377.891 458.969 372.172 453.954C366.453 448.938 363.195 442.001 362.398 433.141H374.703C375.5 439.001 377.586 443.43 380.961 446.43C384.336 449.383 388.789 450.86 394.32 450.86C400.367 450.86 405.102 448.797 408.523 444.672C411.992 440.547 413.727 434.852 413.727 427.587C413.727 420.743 411.852 415.258 408.102 411.133C404.398 406.962 399.453 404.876 393.266 404.876C387.594 404.876 383.141 406.118 379.906 408.602L376.461 411.415L366.055 408.743Z" fill="white"/>
<path d="M522.682 334.071H734C761.614 334.071 784 356.457 784 384.071V437C784 464.614 761.614 487 734 487H522.682V334.071Z" fill="url(#paint8_linear)"/>
<path d="M672.458 357.626V368.665H670.068C659.943 368.852 651.88 371.852 645.88 377.665C639.88 383.477 636.411 391.657 635.474 402.204C640.865 396.016 648.224 392.922 657.552 392.922C666.458 392.922 673.56 396.063 678.857 402.344C684.201 408.626 686.872 416.735 686.872 426.672C686.872 437.219 683.99 445.657 678.224 451.985C672.505 458.313 664.818 461.477 655.161 461.477C645.365 461.477 637.419 457.727 631.326 450.227C625.232 442.68 622.185 432.977 622.185 421.118V416.126C622.185 397.282 626.193 382.891 634.208 372.954C642.271 362.969 654.247 357.86 670.138 357.626H672.458ZM655.372 403.751C650.919 403.751 646.818 405.087 643.068 407.758C639.318 410.43 636.716 413.782 635.263 417.813V422.594C635.263 431.032 637.161 437.829 640.958 442.985C644.755 448.141 649.49 450.719 655.161 450.719C661.021 450.719 665.615 448.563 668.943 444.251C672.318 439.938 674.005 434.29 674.005 427.305C674.005 420.274 672.294 414.602 668.872 410.29C665.497 405.93 660.997 403.751 655.372 403.751Z" fill="white"/>
</g>
<defs>
<linearGradient id="paint0_linear" x1="489.63" y1="135.131" x2="565.661" y2="249.457" gradientUnits="userSpaceOnUse">
<stop stop-color="#E24786"/>
<stop offset="1" stop-color="#FF7BAC"/>
</linearGradient>
<linearGradient id="paint1_linear" x1="685.63" y1="234.281" x2="646.43" y2="234.281" gradientUnits="userSpaceOnUse">
<stop stop-opacity="0.2"/>
<stop offset="1" stop-opacity="0"/>
</linearGradient>
<radialGradient id="paint2_angular" cx="0" cy="0" r="1" gradientUnits="userSpaceOnUse" gradientTransform="translate(195.63 205.212) rotate(179.852) scale(98.0003 128.859)">
<stop stop-color="#207DB7"/>
<stop offset="0.0001" stop-color="#207DB7"/>
<stop offset="1" stop-color="#29A6F3"/>
</radialGradient>
<linearGradient id="paint3_linear" x1="293.63" y1="204.86" x2="254.43" y2="204.86" gradientUnits="userSpaceOnUse">
<stop stop-opacity="0.2"/>
<stop offset="1" stop-opacity="0"/>
</linearGradient>
<linearGradient id="paint4_linear" x1="391.26" y1="304.969" x2="391.26" y2="334.071" gradientUnits="userSpaceOnUse">
<stop stop-color="#9EB644"/>
<stop offset="1" stop-color="#869929"/>
</linearGradient>
<linearGradient id="paint5_linear" x1="489.63" y1="166.642" x2="450.43" y2="166.642" gradientUnits="userSpaceOnUse">
<stop stop-opacity="0.2"/>
<stop offset="1" stop-opacity="0"/>
</linearGradient>
<linearGradient id="paint6_linear" x1="130.674" y1="334.071" x2="130.674" y2="487" gradientUnits="userSpaceOnUse">
<stop stop-color="#FFB800"/>
<stop offset="1" stop-color="#C1A251"/>
</linearGradient>
<linearGradient id="paint7_linear" x1="392.007" y1="334.071" x2="392.007" y2="487" gradientUnits="userSpaceOnUse">
<stop stop-color="#FFB800"/>
<stop offset="1" stop-color="#C1A251"/>
</linearGradient>
<linearGradient id="paint8_linear" x1="653.341" y1="334.071" x2="653.341" y2="487" gradientUnits="userSpaceOnUse">
<stop stop-color="#FFB800"/>
<stop offset="1" stop-color="#C1A251"/>
</linearGradient>
<clipPath id="clip0">
<rect width="784" height="487" fill="white"/>
</clipPath>
</defs>
</svg>
