<svg width="784" height="487" viewBox="0 0 784 487" fill="none" xmlns="http://www.w3.org/2000/svg">
<g clip-path="url(#clip0)">
<rect width="784" height="487" fill="white"/>
<path d="M489.63 134.96H635.63C663.244 134.96 685.63 157.346 685.63 184.96V334.071H489.63V134.96Z" fill="url(#paint0_linear)" fill-opacity="0.8"/>
<path d="M489.63 134.96H635.63C663.244 134.96 685.63 157.346 685.63 184.96V334.071H489.63V134.96Z" fill="url(#paint1_linear)" fill-opacity="0.8"/>
<path d="M574.622 226.444H584.396C590.536 226.35 595.365 224.733 598.88 221.593C602.396 218.452 604.154 214.21 604.154 208.866C604.154 196.866 598.177 190.866 586.224 190.866C580.599 190.866 576.099 192.483 572.724 195.718C569.396 198.905 567.732 203.147 567.732 208.444H554.724C554.724 200.335 557.677 193.608 563.583 188.264C569.536 182.874 577.083 180.179 586.224 180.179C595.88 180.179 603.45 182.733 608.935 187.843C614.419 192.952 617.161 200.054 617.161 209.147C617.161 213.6 615.708 217.913 612.802 222.085C609.943 226.257 606.029 229.374 601.06 231.436C606.685 233.218 611.021 236.171 614.068 240.296C617.161 244.421 618.708 249.46 618.708 255.413C618.708 264.6 615.708 271.889 609.708 277.28C603.708 282.671 595.904 285.366 586.294 285.366C576.685 285.366 568.857 282.764 562.81 277.561C556.81 272.358 553.81 265.491 553.81 256.96H566.888C566.888 262.35 568.646 266.663 572.161 269.897C575.677 273.132 580.388 274.749 586.294 274.749C592.575 274.749 597.38 273.108 600.708 269.827C604.036 266.546 605.7 261.835 605.7 255.694C605.7 249.741 603.872 245.171 600.216 241.983C596.56 238.796 591.286 237.155 584.396 237.061H574.622V226.444Z" fill="white"/>
<path d="M97.6302 126.354C97.6302 98.7401 120.016 76.3543 147.63 76.3543H293.63V334.071H97.6302V126.354Z" fill="url(#paint2_angular)" fill-opacity="0.8"/>
<path d="M97.6302 126.255C97.6302 98.6411 120.016 76.2553 147.63 76.2553H293.63V334.071H97.6302V126.255Z" fill="url(#paint3_linear)" fill-opacity="0.8"/>
<path d="M230.786 254.354H163.708V245.003L199.146 205.628C204.396 199.675 208.005 194.846 209.974 191.143C211.99 187.393 212.997 183.526 212.997 179.542C212.997 174.198 211.38 169.815 208.146 166.393C204.911 162.971 200.599 161.261 195.208 161.261C188.74 161.261 183.701 163.112 180.091 166.815C176.529 170.471 174.747 175.581 174.747 182.143H161.74C161.74 172.721 164.763 165.104 170.81 159.292C176.904 153.479 185.036 150.573 195.208 150.573C204.724 150.573 212.247 153.081 217.779 158.096C223.31 163.065 226.076 169.698 226.076 177.995C226.076 188.073 219.654 200.073 206.81 213.995L179.388 243.737H230.786V254.354Z" fill="white"/>
<path d="M293.63 49.9999C293.63 22.3857 316.016 0 343.63 0H439.63C467.244 0 489.63 22.3858 489.63 50V334.071H293.63V49.9999Z" fill="url(#paint4_linear)"/>
<path d="M293.63 49.9999C293.63 22.3857 316.016 0 343.63 0H439.63C467.244 0 489.63 22.3858 489.63 50V334.071H293.63V49.9999Z" fill="url(#paint5_linear)" fill-opacity="0.8"/>
<path d="M402.458 216H389.38V129.305L363.154 138.938V127.125L400.419 113.133H402.458V216Z" fill="white"/>
<path d="M0.00891113 384.071C0.00891113 356.457 22.3947 334.071 50.0089 334.071H156.8V487H50.0089C22.3947 487 0.00891113 464.614 0.00891113 437V384.071Z" fill="url(#paint6_linear)"/>
<path d="M101.392 425.688H115.595V436.305H101.392V460.071H88.3141V436.305H41.6969V428.641L87.5406 357.696H101.392V425.688ZM56.4625 425.688H88.3141V375.485L86.7672 378.297L56.4625 425.688Z" fill="white"/>
<path d="M156.809 334.071H313.6V487H156.809V334.071Z" fill="url(#paint7_linear)"/>
<path d="M209.255 408.743L214.458 357.696H266.911V369.719H225.497L222.403 397.633C227.419 394.68 233.114 393.204 239.489 393.204C248.817 393.204 256.223 396.297 261.708 402.485C267.192 408.626 269.934 416.946 269.934 427.446C269.934 437.993 267.075 446.313 261.356 452.407C255.684 458.454 247.739 461.477 237.52 461.477C228.473 461.477 221.091 458.969 215.372 453.954C209.653 448.938 206.395 442.001 205.598 433.141H217.903C218.7 439.001 220.786 443.43 224.161 446.43C227.536 449.383 231.989 450.86 237.52 450.86C243.567 450.86 248.302 448.797 251.723 444.672C255.192 440.547 256.927 434.852 256.927 427.587C256.927 420.743 255.052 415.258 251.302 411.133C247.598 406.962 242.653 404.876 236.466 404.876C230.794 404.876 226.341 406.118 223.106 408.602L219.661 411.415L209.255 408.743Z" fill="white"/>
<path d="M313.609 334.071H470.4V487H313.609V334.071Z" fill="url(#paint8_linear)"/>
<path d="M411.125 357.626V368.665H408.734C398.609 368.852 390.547 371.852 384.547 377.665C378.547 383.477 375.078 391.657 374.141 402.204C379.531 396.016 386.891 392.922 396.219 392.922C405.125 392.922 412.227 396.063 417.523 402.344C422.867 408.626 425.539 416.735 425.539 426.672C425.539 437.219 422.656 445.657 416.891 451.985C411.172 458.313 403.484 461.477 393.828 461.477C384.031 461.477 376.086 457.727 369.992 450.227C363.898 442.68 360.852 432.977 360.852 421.118V416.126C360.852 397.282 364.859 382.891 372.875 372.954C380.938 362.969 392.914 357.86 408.805 357.626H411.125ZM394.039 403.751C389.586 403.751 385.484 405.087 381.734 407.758C377.984 410.43 375.383 413.782 373.93 417.813V422.594C373.93 431.032 375.828 437.829 379.625 442.985C383.422 448.141 388.156 450.719 393.828 450.719C399.688 450.719 404.281 448.563 407.609 444.251C410.984 439.938 412.672 434.29 412.672 427.305C412.672 420.274 410.961 414.602 407.539 410.29C404.164 405.93 399.664 403.751 394.039 403.751Z" fill="white"/>
<path d="M470.409 334.071H627.2V487H470.409V334.071Z" fill="url(#paint9_linear)"/>
<path d="M582.972 365.008L540.573 460.071H526.933L569.191 368.383H513.784V357.696H582.972V365.008Z" fill="white"/>
<path d="M627.209 334H734C761.614 334 784 356.386 784 384V436.929C784 464.543 761.614 486.929 734 486.929H627.209V334Z" fill="url(#paint10_linear)"/>
<path d="M735.764 384.344C735.764 389.453 734.405 394 731.686 397.984C729.014 401.969 725.381 405.086 720.788 407.336C726.131 409.633 730.35 412.984 733.444 417.391C736.584 421.797 738.155 426.789 738.155 432.367C738.155 441.227 735.155 448.281 729.155 453.531C723.202 458.781 715.35 461.406 705.6 461.406C695.756 461.406 687.858 458.781 681.905 453.531C675.998 448.234 673.045 441.18 673.045 432.367C673.045 426.836 674.545 421.844 677.545 417.391C680.592 412.938 684.788 409.562 690.131 407.266C685.584 405.016 681.998 401.898 679.373 397.914C676.748 393.93 675.436 389.406 675.436 384.344C675.436 375.719 678.202 368.875 683.733 363.812C689.264 358.75 696.553 356.219 705.6 356.219C714.6 356.219 721.866 358.75 727.397 363.812C732.975 368.875 735.764 375.719 735.764 384.344ZM725.147 432.086C725.147 426.367 723.319 421.703 719.663 418.094C716.053 414.484 711.319 412.68 705.459 412.68C699.6 412.68 694.889 414.461 691.327 418.023C687.811 421.586 686.053 426.273 686.053 432.086C686.053 437.898 687.764 442.469 691.186 445.797C694.655 449.125 699.459 450.789 705.6 450.789C711.694 450.789 716.475 449.125 719.944 445.797C723.413 442.422 725.147 437.852 725.147 432.086ZM705.6 366.906C700.491 366.906 696.342 368.5 693.155 371.688C690.014 374.828 688.444 379.117 688.444 384.555C688.444 389.758 689.991 393.977 693.084 397.211C696.225 400.398 700.397 401.992 705.6 401.992C710.803 401.992 714.952 400.398 718.045 397.211C721.186 393.977 722.756 389.758 722.756 384.555C722.756 379.352 721.139 375.109 717.905 371.828C714.67 368.547 710.569 366.906 705.6 366.906Z" fill="white"/>
</g>
<defs>
<linearGradient id="paint0_linear" x1="489.63" y1="135.131" x2="565.661" y2="249.457" gradientUnits="userSpaceOnUse">
<stop stop-color="#E24786"/>
<stop offset="1" stop-color="#FF7BAC"/>
</linearGradient>
<linearGradient id="paint1_linear" x1="685.63" y1="234.281" x2="646.43" y2="234.281" gradientUnits="userSpaceOnUse">
<stop stop-opacity="0.2"/>
<stop offset="1" stop-opacity="0"/>
</linearGradient>
<radialGradient id="paint2_angular" cx="0" cy="0" r="1" gradientUnits="userSpaceOnUse" gradientTransform="translate(195.63 205.212) rotate(179.852) scale(98.0003 128.859)">
<stop stop-color="#207DB7"/>
<stop offset="0.0001" stop-color="#207DB7"/>
<stop offset="1" stop-color="#29A6F3"/>
</radialGradient>
<linearGradient id="paint3_linear" x1="293.63" y1="204.86" x2="254.43" y2="204.86" gradientUnits="userSpaceOnUse">
<stop stop-opacity="0.2"/>
<stop offset="1" stop-opacity="0"/>
</linearGradient>
<linearGradient id="paint4_linear" x1="391.26" y1="304.969" x2="391.26" y2="334.071" gradientUnits="userSpaceOnUse">
<stop stop-color="#9EB644"/>
<stop offset="1" stop-color="#869929"/>
</linearGradient>
<linearGradient id="paint5_linear" x1="489.63" y1="166.642" x2="450.43" y2="166.642" gradientUnits="userSpaceOnUse">
<stop stop-opacity="0.2"/>
<stop offset="1" stop-opacity="0"/>
</linearGradient>
<linearGradient id="paint6_linear" x1="78.4044" y1="334.071" x2="78.4044" y2="487" gradientUnits="userSpaceOnUse">
<stop stop-color="#FFB800"/>
<stop offset="1" stop-color="#C1A251"/>
</linearGradient>
<linearGradient id="paint7_linear" x1="235.204" y1="334.071" x2="235.204" y2="487" gradientUnits="userSpaceOnUse">
<stop stop-color="#FFB800"/>
<stop offset="1" stop-color="#C1A251"/>
</linearGradient>
<linearGradient id="paint8_linear" x1="392.004" y1="334.071" x2="392.004" y2="487" gradientUnits="userSpaceOnUse">
<stop stop-color="#FFB800"/>
<stop offset="1" stop-color="#C1A251"/>
</linearGradient>
<linearGradient id="paint9_linear" x1="548.804" y1="334.071" x2="548.804" y2="487" gradientUnits="userSpaceOnUse">
<stop stop-color="#FFB800"/>
<stop offset="1" stop-color="#C1A251"/>
</linearGradient>
<linearGradient id="paint10_linear" x1="705.604" y1="334" x2="705.604" y2="486.929" gradientUnits="userSpaceOnUse">
<stop stop-color="#FFB800"/>
<stop offset="1" stop-color="#C1A251"/>
</linearGradient>
<clipPath id="clip0">
<rect width="784" height="487" fill="white"/>
</clipPath>
</defs>
</svg>
