<svg width="784" height="487" viewBox="0 0 784 487" fill="none" xmlns="http://www.w3.org/2000/svg">
<rect width="784" height="487" fill="transperant"/>
<path d="M489.63 134.96H635.63C663.244 134.96 685.63 157.346 685.63 184.96V334.071H489.63V134.96Z" fill="url(#paint0_linear)" fill-opacity="0.8"/>
<path d="M489.63 134.96H635.63C663.244 134.96 685.63 157.346 685.63 184.96V334.071H489.63V134.96Z" fill="url(#paint1_linear)" fill-opacity="0.8"/>
<path d="M574.622 226.444H584.396C590.536 226.35 595.365 224.733 598.88 221.593C602.396 218.452 604.154 214.21 604.154 208.866C604.154 196.866 598.177 190.866 586.224 190.866C580.599 190.866 576.099 192.483 572.724 195.718C569.396 198.905 567.732 203.147 567.732 208.444H554.724C554.724 200.335 557.677 193.608 563.583 188.264C569.536 182.874 577.083 180.179 586.224 180.179C595.88 180.179 603.45 182.733 608.935 187.843C614.419 192.952 617.161 200.054 617.161 209.147C617.161 213.6 615.708 217.913 612.802 222.085C609.943 226.257 606.029 229.374 601.06 231.436C606.685 233.218 611.021 236.171 614.068 240.296C617.161 244.421 618.708 249.46 618.708 255.413C618.708 264.6 615.708 271.889 609.708 277.28C603.708 282.671 595.904 285.366 586.294 285.366C576.685 285.366 568.857 282.764 562.81 277.561C556.81 272.358 553.81 265.491 553.81 256.96H566.888C566.888 262.35 568.646 266.663 572.161 269.897C575.677 273.132 580.388 274.749 586.294 274.749C592.575 274.749 597.38 273.108 600.708 269.827C604.036 266.546 605.7 261.835 605.7 255.694C605.7 249.741 603.872 245.171 600.216 241.983C596.56 238.796 591.286 237.155 584.396 237.061H574.622V226.444Z" fill="white"/>
<path d="M97.6302 126.354C97.6302 98.7401 120.016 76.3543 147.63 76.3543H293.63V334.071H97.6302V126.354Z" fill="url(#paint2_angular)" fill-opacity="0.8"/>
<path d="M97.6302 126.255C97.6302 98.6411 120.016 76.2553 147.63 76.2553H293.63V334.071H97.6302V126.255Z" fill="url(#paint3_linear)" fill-opacity="0.8"/>
<path d="M230.786 254.354H163.708V245.003L199.146 205.628C204.396 199.675 208.005 194.846 209.974 191.143C211.99 187.393 212.997 183.526 212.997 179.542C212.997 174.198 211.38 169.815 208.146 166.393C204.911 162.971 200.599 161.261 195.208 161.261C188.74 161.261 183.701 163.112 180.091 166.815C176.529 170.471 174.747 175.581 174.747 182.143H161.74C161.74 172.721 164.763 165.104 170.81 159.292C176.904 153.479 185.036 150.573 195.208 150.573C204.724 150.573 212.247 153.081 217.779 158.096C223.31 163.065 226.076 169.698 226.076 177.995C226.076 188.073 219.654 200.073 206.81 213.995L179.388 243.737H230.786V254.354Z" fill="white"/>
<path d="M293.63 49.9999C293.63 22.3857 316.016 0 343.63 0H439.63C467.244 0 489.63 22.3858 489.63 50V334.071H293.63V49.9999Z" fill="url(#paint4_linear)"/>
<path d="M293.63 49.9999C293.63 22.3857 316.016 0 343.63 0H439.63C467.244 0 489.63 22.3858 489.63 50V334.071H293.63V49.9999Z" fill="url(#paint5_linear)" fill-opacity="0.8"/>
<path d="M402.458 216H389.38V129.305L363.154 138.938V127.125L400.419 113.133H402.458V216Z" fill="white"/>
<path d="M0.0111694 384.071C0.0111694 356.457 22.3969 334.071 50.0112 334.071H196V487H50.0112C22.3969 487 0.0111694 464.614 0.0111694 437V384.071Z" fill="url(#paint6_linear)"/>
<path d="M120.992 425.688H135.195V436.305H120.992V460.071H107.914V436.305H61.2969V428.641L107.141 357.696H120.992V425.688ZM76.0625 425.688H107.914V375.485L106.367 378.297L76.0625 425.688Z" fill="white"/>
<path d="M196.011 334.071H392V487H196.011V334.071Z" fill="url(#paint7_linear)"/>
<path d="M268.055 408.743L273.258 357.696H325.711V369.719H284.297L281.203 397.633C286.219 394.68 291.914 393.204 298.289 393.204C307.617 393.204 315.023 396.297 320.508 402.485C325.992 408.626 328.734 416.946 328.734 427.446C328.734 437.993 325.875 446.313 320.156 452.407C314.484 458.454 306.539 461.477 296.32 461.477C287.273 461.477 279.891 458.969 274.172 453.954C268.453 448.938 265.195 442.001 264.398 433.141H276.703C277.5 439.001 279.586 443.43 282.961 446.43C286.336 449.383 290.789 450.86 296.32 450.86C302.367 450.86 307.102 448.797 310.523 444.672C313.992 440.547 315.727 434.852 315.727 427.587C315.727 420.743 313.852 415.258 310.102 411.133C306.398 406.962 301.453 404.876 295.266 404.876C289.594 404.876 285.141 406.118 281.906 408.602L278.461 411.415L268.055 408.743Z" fill="white"/>
<path d="M392.011 334.071H588V487H392.011V334.071Z" fill="url(#paint8_linear)"/>
<path d="M509.125 357.626V368.665H506.734C496.609 368.852 488.547 371.852 482.547 377.665C476.547 383.477 473.078 391.657 472.141 402.204C477.531 396.016 484.891 392.922 494.219 392.922C503.125 392.922 510.227 396.063 515.523 402.344C520.867 408.626 523.539 416.735 523.539 426.672C523.539 437.219 520.656 445.657 514.891 451.985C509.172 458.313 501.484 461.477 491.828 461.477C482.031 461.477 474.086 457.727 467.992 450.227C461.898 442.68 458.852 432.977 458.852 421.118V416.126C458.852 397.282 462.859 382.891 470.875 372.954C478.938 362.969 490.914 357.86 506.805 357.626H509.125ZM492.039 403.751C487.586 403.751 483.484 405.087 479.734 407.758C475.984 410.43 473.383 413.782 471.93 417.813V422.594C471.93 431.032 473.828 437.829 477.625 442.985C481.422 448.141 486.156 450.719 491.828 450.719C497.688 450.719 502.281 448.563 505.609 444.251C508.984 439.938 510.672 434.29 510.672 427.305C510.672 420.274 508.961 414.602 505.539 410.29C502.164 405.93 497.664 403.751 492.039 403.751Z" fill="white"/>
<path d="M588.011 334.071H734C761.614 334.071 784 356.457 784 384.071V437C784 464.614 761.614 487 734 487H588.011V334.071Z" fill="url(#paint9_linear)"/>
<path d="M720.172 365.008L677.773 460.071H664.133L706.391 368.383H650.984V357.696H720.172V365.008Z" fill="white"/>
<defs>
<linearGradient id="paint0_linear" x1="489.63" y1="135.131" x2="565.661" y2="249.457" gradientUnits="userSpaceOnUse">
<stop stop-color="#E24786"/>
<stop offset="1" stop-color="#FF7BAC"/>
</linearGradient>
<linearGradient id="paint1_linear" x1="685.63" y1="234.281" x2="646.43" y2="234.281" gradientUnits="userSpaceOnUse">
<stop stop-opacity="0.2"/>
<stop offset="1" stop-opacity="0"/>
</linearGradient>
<radialGradient id="paint2_angular" cx="0" cy="0" r="1" gradientUnits="userSpaceOnUse" gradientTransform="translate(195.63 205.212) rotate(179.852) scale(98.0003 128.859)">
<stop stop-color="#207DB7"/>
<stop offset="0.0001" stop-color="#207DB7"/>
<stop offset="1" stop-color="#29A6F3"/>
</radialGradient>
<linearGradient id="paint3_linear" x1="293.63" y1="204.86" x2="254.43" y2="204.86" gradientUnits="userSpaceOnUse">
<stop stop-opacity="0.2"/>
<stop offset="1" stop-opacity="0"/>
</linearGradient>
<linearGradient id="paint4_linear" x1="391.26" y1="304.969" x2="391.26" y2="334.071" gradientUnits="userSpaceOnUse">
<stop stop-color="#9EB644"/>
<stop offset="1" stop-color="#869929"/>
</linearGradient>
<linearGradient id="paint5_linear" x1="489.63" y1="166.642" x2="450.43" y2="166.642" gradientUnits="userSpaceOnUse">
<stop stop-opacity="0.2"/>
<stop offset="1" stop-opacity="0"/>
</linearGradient>
<linearGradient id="paint6_linear" x1="98.0056" y1="334.071" x2="98.0056" y2="487" gradientUnits="userSpaceOnUse">
<stop stop-color="#FFB800"/>
<stop offset="1" stop-color="#C1A251"/>
</linearGradient>
<linearGradient id="paint7_linear" x1="294.006" y1="334.071" x2="294.006" y2="487" gradientUnits="userSpaceOnUse">
<stop stop-color="#FFB800"/>
<stop offset="1" stop-color="#C1A251"/>
</linearGradient>
<linearGradient id="paint8_linear" x1="490.006" y1="334.071" x2="490.006" y2="487" gradientUnits="userSpaceOnUse">
<stop stop-color="#FFB800"/>
<stop offset="1" stop-color="#C1A251"/>
</linearGradient>
<linearGradient id="paint9_linear" x1="686.006" y1="334.071" x2="686.006" y2="487" gradientUnits="userSpaceOnUse">
<stop stop-color="#FFB800"/>
<stop offset="1" stop-color="#C1A251"/>
</linearGradient>
</defs>
</svg>
