<svg width="784" height="487" viewBox="0 0 784 487" fill="none" xmlns="http://www.w3.org/2000/svg">
<g clip-path="url(#clip0)">
<rect width="784" height="487" fill="white"/>
<path d="M489.63 134.96H635.63C663.244 134.96 685.63 157.346 685.63 184.96V334.071H489.63V134.96Z" fill="url(#paint0_linear)" fill-opacity="0.8"/>
<path d="M489.63 134.96H635.63C663.244 134.96 685.63 157.346 685.63 184.96V334.071H489.63V134.96Z" fill="url(#paint1_linear)" fill-opacity="0.8"/>
<path d="M574.622 226.444H584.396C590.536 226.35 595.365 224.733 598.88 221.593C602.396 218.452 604.154 214.21 604.154 208.866C604.154 196.866 598.177 190.866 586.224 190.866C580.599 190.866 576.099 192.483 572.724 195.718C569.396 198.905 567.732 203.147 567.732 208.444H554.724C554.724 200.335 557.677 193.608 563.583 188.264C569.536 182.874 577.083 180.179 586.224 180.179C595.88 180.179 603.45 182.733 608.935 187.843C614.419 192.952 617.161 200.054 617.161 209.147C617.161 213.6 615.708 217.913 612.802 222.085C609.943 226.257 606.029 229.374 601.06 231.436C606.685 233.218 611.021 236.171 614.068 240.296C617.161 244.421 618.708 249.46 618.708 255.413C618.708 264.6 615.708 271.889 609.708 277.28C603.708 282.671 595.904 285.366 586.294 285.366C576.685 285.366 568.857 282.764 562.81 277.561C556.81 272.358 553.81 265.491 553.81 256.96H566.888C566.888 262.35 568.646 266.663 572.161 269.897C575.677 273.132 580.388 274.749 586.294 274.749C592.575 274.749 597.38 273.108 600.708 269.827C604.036 266.546 605.7 261.835 605.7 255.694C605.7 249.741 603.872 245.171 600.216 241.983C596.56 238.796 591.286 237.155 584.396 237.061H574.622V226.444Z" fill="white"/>
<path d="M97.6301 126.354C97.6301 98.7401 120.016 76.3543 147.63 76.3543H293.63V334.071H97.6301V126.354Z" fill="url(#paint2_angular)" fill-opacity="0.8"/>
<path d="M97.6301 126.255C97.6301 98.6411 120.016 76.2553 147.63 76.2553H293.63V334.071H97.6301V126.255Z" fill="url(#paint3_linear)" fill-opacity="0.8"/>
<path d="M230.786 254.354H163.708V245.003L199.146 205.628C204.396 199.675 208.005 194.846 209.974 191.143C211.99 187.393 212.997 183.526 212.997 179.542C212.997 174.198 211.38 169.815 208.146 166.393C204.911 162.971 200.599 161.261 195.208 161.261C188.74 161.261 183.7 163.112 180.091 166.815C176.529 170.471 174.747 175.581 174.747 182.143H161.74C161.74 172.721 164.763 165.104 170.81 159.292C176.904 153.479 185.036 150.573 195.208 150.573C204.724 150.573 212.247 153.081 217.779 158.096C223.31 163.065 226.075 169.698 226.075 177.995C226.075 188.073 219.654 200.073 206.81 213.995L179.388 243.737H230.786V254.354Z" fill="white"/>
<path d="M293.63 49.9999C293.63 22.3857 316.016 0 343.63 0H439.63C467.244 0 489.63 22.3858 489.63 50V334.071H293.63V49.9999Z" fill="url(#paint4_linear)"/>
<path d="M293.63 49.9999C293.63 22.3857 316.016 0 343.63 0H439.63C467.244 0 489.63 22.3858 489.63 50V334.071H293.63V49.9999Z" fill="url(#paint5_linear)" fill-opacity="0.8"/>
<path d="M402.458 216H389.38V129.305L363.154 138.938V127.125L400.419 113.133H402.458V216Z" fill="white"/>
<path d="M0.00561523 384.071C0.00561523 356.457 22.3914 334.071 50.0056 334.071H103.5V487H50.0056C22.3914 487 0.00561523 464.614 0.00561523 437V384.071Z" fill="url(#paint6_linear)"/>
<path d="M74.7422 425.688H88.9453V436.305H74.7422V460.071H61.6641V436.305H15.0469V428.641L60.8906 357.696H74.7422V425.688ZM29.8125 425.688H61.6641V375.485L60.1172 378.297L29.8125 425.688Z" fill="white"/>
<path d="M103.506 334.071H207V487H103.506V334.071Z" fill="url(#paint7_linear)"/>
<path d="M129.305 408.743L134.508 357.696H186.961V369.719H145.547L142.453 397.633C147.469 394.68 153.164 393.204 159.539 393.204C168.867 393.204 176.274 396.297 181.758 402.485C187.242 408.626 189.985 416.946 189.985 427.446C189.985 437.993 187.125 446.313 181.407 452.407C175.735 458.454 167.789 461.477 157.571 461.477C148.524 461.477 141.141 458.969 135.422 453.954C129.703 448.938 126.446 442.001 125.649 433.141H137.953C138.75 439.001 140.836 443.43 144.211 446.43C147.586 449.383 152.039 450.86 157.571 450.86C163.617 450.86 168.352 448.797 171.774 444.672C175.242 440.547 176.977 434.852 176.977 427.587C176.977 420.743 175.102 415.258 171.352 411.133C167.649 406.962 162.703 404.876 156.516 404.876C150.844 404.876 146.391 406.118 143.157 408.602L139.711 411.415L129.305 408.743Z" fill="white"/>
<path d="M207.005 334.071H310.499V487H207.005V334.071Z" fill="url(#paint8_linear)"/>
<path d="M277.875 357.626V368.665H275.484C265.359 368.852 257.297 371.852 251.297 377.665C245.297 383.477 241.828 391.657 240.89 402.204C246.281 396.016 253.64 392.922 262.969 392.922C271.875 392.922 278.976 396.063 284.273 402.344C289.617 408.626 292.289 416.735 292.289 426.672C292.289 437.219 289.406 445.657 283.64 451.985C277.922 458.313 270.234 461.477 260.578 461.477C250.781 461.477 242.836 457.727 236.742 450.227C230.648 442.68 227.601 432.977 227.601 421.118V416.126C227.601 397.282 231.609 382.891 239.625 372.954C247.687 362.969 259.664 357.86 275.554 357.626H277.875ZM260.789 403.751C256.336 403.751 252.234 405.087 248.484 407.758C244.734 410.43 242.133 413.782 240.679 417.813V422.594C240.679 431.032 242.578 437.829 246.375 442.985C250.172 448.141 254.906 450.719 260.578 450.719C266.437 450.719 271.031 448.563 274.359 444.251C277.734 439.938 279.422 434.29 279.422 427.305C279.422 420.274 277.711 414.602 274.289 410.29C270.914 405.93 266.414 403.751 260.789 403.751Z" fill="white"/>
<path d="M310.506 334.071H414V487H310.506V334.071Z" fill="url(#paint9_linear)"/>
<path d="M396.422 365.008L354.023 460.071H340.383L382.641 368.383H327.234V357.696H396.422V365.008Z" fill="white"/>
<path d="M414.006 334H517.5V486.929H414.006V334Z" fill="url(#paint10_linear)"/>
<path d="M495.914 384.344C495.914 389.453 494.555 394 491.836 397.984C489.164 401.969 485.531 405.086 480.938 407.336C486.281 409.633 490.5 412.984 493.594 417.391C496.734 421.797 498.305 426.789 498.305 432.367C498.305 441.227 495.305 448.281 489.305 453.531C483.352 458.781 475.5 461.406 465.75 461.406C455.906 461.406 448.008 458.781 442.055 453.531C436.148 448.234 433.195 441.18 433.195 432.367C433.195 426.836 434.695 421.844 437.695 417.391C440.742 412.938 444.938 409.562 450.281 407.266C445.734 405.016 442.148 401.898 439.523 397.914C436.898 393.93 435.586 389.406 435.586 384.344C435.586 375.719 438.352 368.875 443.883 363.812C449.414 358.75 456.703 356.219 465.75 356.219C474.75 356.219 482.016 358.75 487.547 363.812C493.125 368.875 495.914 375.719 495.914 384.344ZM485.297 432.086C485.297 426.367 483.469 421.703 479.813 418.094C476.203 414.484 471.469 412.68 465.609 412.68C459.75 412.68 455.039 414.461 451.477 418.023C447.961 421.586 446.203 426.273 446.203 432.086C446.203 437.898 447.914 442.469 451.336 445.797C454.805 449.125 459.609 450.789 465.75 450.789C471.844 450.789 476.625 449.125 480.094 445.797C483.563 442.422 485.297 437.852 485.297 432.086ZM465.75 366.906C460.641 366.906 456.492 368.5 453.305 371.688C450.164 374.828 448.594 379.117 448.594 384.555C448.594 389.758 450.141 393.977 453.234 397.211C456.375 400.398 460.547 401.992 465.75 401.992C470.953 401.992 475.102 400.398 478.195 397.211C481.336 393.977 482.906 389.758 482.906 384.555C482.906 379.352 481.289 375.109 478.055 371.828C474.82 368.547 470.719 366.906 465.75 366.906Z" fill="white"/>
<path d="M517.506 334H621V486.929H517.506V334Z" fill="url(#paint11_linear)"/>
<path d="M587.18 415C584.461 418.234 581.203 420.836 577.406 422.805C573.656 424.773 569.531 425.758 565.031 425.758C559.125 425.758 553.969 424.305 549.563 421.398C545.203 418.492 541.828 414.414 539.438 409.164C537.047 403.867 535.852 398.031 535.852 391.656C535.852 384.812 537.141 378.648 539.719 373.164C542.344 367.68 546.047 363.484 550.828 360.578C555.609 357.672 561.188 356.219 567.563 356.219C577.688 356.219 585.656 360.016 591.469 367.609C597.328 375.156 600.258 385.469 600.258 398.547V402.344C600.258 422.266 596.32 436.82 588.445 446.008C580.57 455.148 568.688 459.836 552.797 460.07H550.266V449.102H553.008C563.742 448.914 571.992 446.125 577.758 440.734C583.523 435.297 586.664 426.719 587.18 415ZM567.141 415C571.5 415 575.508 413.664 579.164 410.992C582.867 408.32 585.563 405.016 587.25 401.078V395.875C587.25 387.344 585.398 380.406 581.695 375.062C577.992 369.719 573.305 367.047 567.633 367.047C561.914 367.047 557.32 369.25 553.852 373.656C550.383 378.016 548.648 383.781 548.648 390.953C548.648 397.938 550.313 403.703 553.641 408.25C557.016 412.75 561.516 415 567.141 415Z" fill="white"/>
<path d="M621.009 334H733.999C761.614 334 783.999 356.386 783.999 384V436.929C783.999 464.543 761.614 486.929 733.999 486.929H621.009V334Z" fill="url(#paint12_linear)"/>
<path d="M672.898 460H659.82V373.305L633.594 382.938V371.125L670.859 357.133H672.898V460ZM775.203 416.336C775.203 431.57 772.602 442.891 767.398 450.297C762.195 457.703 754.063 461.406 743 461.406C732.078 461.406 723.992 457.797 718.742 450.578C713.492 443.312 710.773 432.484 710.586 418.094V400.727C710.586 385.68 713.188 374.5 718.391 367.188C723.594 359.875 731.75 356.219 742.859 356.219C753.875 356.219 761.984 359.758 767.188 366.836C772.391 373.867 775.063 384.742 775.203 399.461V416.336ZM762.195 398.547C762.195 387.531 760.648 379.516 757.555 374.5C754.461 369.438 749.563 366.906 742.859 366.906C736.203 366.906 731.352 369.414 728.305 374.43C725.258 379.445 723.688 387.156 723.594 397.562V418.375C723.594 429.438 725.188 437.617 728.375 442.914C731.609 448.164 736.484 450.789 743 450.789C749.422 450.789 754.18 448.305 757.273 443.336C760.414 438.367 762.055 430.539 762.195 419.852V398.547Z" fill="white"/>
</g>
<defs>
<linearGradient id="paint0_linear" x1="489.63" y1="135.131" x2="565.661" y2="249.457" gradientUnits="userSpaceOnUse">
<stop stop-color="#E24786"/>
<stop offset="1" stop-color="#FF7BAC"/>
</linearGradient>
<linearGradient id="paint1_linear" x1="685.63" y1="234.281" x2="646.43" y2="234.281" gradientUnits="userSpaceOnUse">
<stop stop-opacity="0.2"/>
<stop offset="1" stop-opacity="0"/>
</linearGradient>
<radialGradient id="paint2_angular" cx="0" cy="0" r="1" gradientUnits="userSpaceOnUse" gradientTransform="translate(195.63 205.212) rotate(179.852) scale(98.0003 128.859)">
<stop stop-color="#207DB7"/>
<stop offset="0.0001" stop-color="#207DB7"/>
<stop offset="1" stop-color="#29A6F3"/>
</radialGradient>
<linearGradient id="paint3_linear" x1="293.63" y1="204.86" x2="254.43" y2="204.86" gradientUnits="userSpaceOnUse">
<stop stop-opacity="0.2"/>
<stop offset="1" stop-opacity="0"/>
</linearGradient>
<linearGradient id="paint4_linear" x1="391.26" y1="304.969" x2="391.26" y2="334.071" gradientUnits="userSpaceOnUse">
<stop stop-color="#9EB644"/>
<stop offset="1" stop-color="#869929"/>
</linearGradient>
<linearGradient id="paint5_linear" x1="489.63" y1="166.642" x2="450.43" y2="166.642" gradientUnits="userSpaceOnUse">
<stop stop-opacity="0.2"/>
<stop offset="1" stop-opacity="0"/>
</linearGradient>
<linearGradient id="paint6_linear" x1="51.7527" y1="334.071" x2="51.7527" y2="487" gradientUnits="userSpaceOnUse">
<stop stop-color="#FFB800"/>
<stop offset="1" stop-color="#C1A251"/>
</linearGradient>
<linearGradient id="paint7_linear" x1="155.253" y1="334.071" x2="155.253" y2="487" gradientUnits="userSpaceOnUse">
<stop stop-color="#FFB800"/>
<stop offset="1" stop-color="#C1A251"/>
</linearGradient>
<linearGradient id="paint8_linear" x1="258.752" y1="334.071" x2="258.752" y2="487" gradientUnits="userSpaceOnUse">
<stop stop-color="#FFB800"/>
<stop offset="1" stop-color="#C1A251"/>
</linearGradient>
<linearGradient id="paint9_linear" x1="362.253" y1="334.071" x2="362.253" y2="487" gradientUnits="userSpaceOnUse">
<stop stop-color="#FFB800"/>
<stop offset="1" stop-color="#C1A251"/>
</linearGradient>
<linearGradient id="paint10_linear" x1="465.753" y1="334" x2="465.753" y2="486.929" gradientUnits="userSpaceOnUse">
<stop stop-color="#FFB800"/>
<stop offset="1" stop-color="#C1A251"/>
</linearGradient>
<linearGradient id="paint11_linear" x1="569.253" y1="334" x2="569.253" y2="486.929" gradientUnits="userSpaceOnUse">
<stop stop-color="#FFB800"/>
<stop offset="1" stop-color="#C1A251"/>
</linearGradient>
<linearGradient id="paint12_linear" x1="702.504" y1="334" x2="702.504" y2="486.929" gradientUnits="userSpaceOnUse">
<stop stop-color="#FFB800"/>
<stop offset="1" stop-color="#C1A251"/>
</linearGradient>
<clipPath id="clip0">
<rect width="784" height="487" fill="white"/>
</clipPath>
</defs>
</svg>
