<svg width="400" height="215" xmlns="http://www.w3.org/2000/svg" xml:space="preserve" version="1.1">
 <defs>
  <linearGradient y2="1.14622" x2="1.38255" y1="0.42364" x1="0.39566" id="SVGID_1_">
   <stop stop-color="#7ECCFD" offset="0"/>
   <stop stop-color="#3FA9F5" offset="1"/>
  </linearGradient>
  <linearGradient y2="0.50002" x2="1.47242" y1="0.50002" x1="0.39347" id="SVGID_2_">
   <stop stop-color="#1F88C9" stop-opacity="0" offset="0"/>
   <stop stop-color="#3FA9F5" offset="1"/>
  </linearGradient>
  <linearGradient y2="1.08448" x2="1.55062" y1="0.43953" x1="0.35094" id="SVGID_3_">
   <stop stop-color="#9EB644" offset="0"/>
   <stop stop-color="#9CB441" offset="0.046"/>
   <stop stop-color="#738611" offset="1"/>
  </linearGradient>
  <linearGradient y2="1.2722" x2="1.23566" y1="0.41135" x1="0.37475" id="SVGID_4_">
   <stop stop-color="#FF7BAC" offset="0"/>
   <stop stop-color="#E24786" offset="1"/>
  </linearGradient>
  <linearGradient y2="0.05269" x2="-0.44738" y1="0.91463" x1="0.41455" id="SVGID_5_">
   <stop stop-color="#FF7BAC" stop-opacity="0" offset="0"/>
   <stop stop-color="#9E2E4F" offset="1"/>
  </linearGradient>
  <linearGradient y2="0.91821" x2="-0.12475" y1="0.33914" x1="0.74037" id="SVGID_6_">
   <stop stop-color="#1F88C9" stop-opacity="0" offset="0"/>
   <stop stop-color="#3FA9F5" offset="1"/>
  </linearGradient>
  <linearGradient y2="0.90321" x2="0.49997" y1="0.32414" x1="0.49997" id="SVGID_7_">
   <stop stop-color="#738611" stop-opacity="0" offset="0"/>
   <stop stop-color="#738611" offset="1"/>
  </linearGradient>
  <linearGradient y2="1.09424" x2="-2.11015" y1="0.51517" x1="0.43346" id="SVGID_8_">
   <stop stop-color="#FF7BAC" stop-opacity="0" offset="0"/>
   <stop stop-color="#9E2E4F" offset="1"/>
  </linearGradient>
  <linearGradient y2="-0.20331" x2="-0.45429" y1="0.85609" x1="0.85584" id="SVGID_9_">
   <stop stop-color="#FF7BAC" stop-opacity="0" offset="0"/>
   <stop stop-color="#9E2E4F" offset="1"/>
  </linearGradient>
  <linearGradient y2="1.32944" x2="0.49999" y1="0.16722" x1="0.49999" id="SVGID_10_">
   <stop stop-color="#E2EDF2" offset="0"/>
   <stop stop-color="#9FC7E2" offset="1"/>
  </linearGradient>
  <linearGradient y2="0.09362" x2="-0.1772" y1="0.61051" x1="0.86776" id="SVGID_11_">
   <stop stop-color="#738611" stop-opacity="0" offset="0"/>
   <stop stop-color="#738611" offset="1"/>
  </linearGradient>
  <linearGradient y2="-0.16613" x2="-0.52235" y1="0.78804" x1="0.89936" id="SVGID_12_">
   <stop stop-color="#1F88C9" stop-opacity="0" offset="0"/>
   <stop stop-color="#3FA9F5" offset="1"/>
  </linearGradient>
 </defs>
 <g>
  <title>Layer 1</title>
  <g stroke="null" id="svg_32">
   <path stroke="null" id="svg_1" fill="url(#SVGID_1_)" d="m138.36425,206.7278l-122.54387,0l0,-136.80177c0,-7.58778 6.83832,-13.73966 15.27451,-13.73966l107.26936,0l0,150.54143l0,0z"/>
   <rect stroke="null" id="svg_2" fill="url(#SVGID_2_)" height="150.54073" width="53.33795" y="56.18427" x="85.02942"/>
   <path stroke="null" id="svg_3" fill="url(#SVGID_3_)" d="m260.90812,206.7278l-122.54387,0l0,-191.29324c0,-7.58778 6.83832,-13.73966 15.27451,-13.73966l91.99563,0c8.43541,0 15.27451,6.15118 15.27451,13.73966l0,191.29324l-0.00078,0z"/>
   <path stroke="null" id="svg_4" fill="url(#SVGID_4_)" d="m383.45199,206.7278l-122.54387,0l0,-110.23015l107.26936,0c8.43541,0 15.27451,6.15118 15.27451,13.73966l0,96.49049l0,0z"/>
   <polygon stroke="null" id="svg_5" fill="url(#SVGID_5_)" points="383.4519958496094,206.72781061911098 260.90814208984375,206.72781061911098 260.90814208984375,96.49764220408031 "/>
   <rect stroke="null" id="svg_6" fill="url(#SVGID_6_)" height="72.6616" width="122.54543" y="134.06339" x="15.82195"/>
   <rect stroke="null" id="svg_7" fill="url(#SVGID_7_)" height="72.6616" width="122.54543" y="134.06339" x="138.36737"/>
   <rect stroke="null" id="svg_8" fill="url(#SVGID_8_)" height="72.6616" width="122.54543" y="134.06339" x="260.905"/>
   <path stroke="null" id="svg_9" fill="url(#SVGID_9_)" d="m383.45199,151.38686l-41.6374,-37.4535c-4.05667,-3.89946 -10.52847,-5.86428 -19.45127,-5.86428c-4.72186,0 -8.85184,0.6229 -12.39226,1.86661c-3.5412,1.24581 -6.22693,2.85568 -8.05875,4.83242c-1.83104,1.97674 -3.15519,3.95418 -3.96777,5.93092c-0.81492,1.97674 -1.22121,3.95418 -1.22121,5.93092c0,2.12475 0.42735,3.55224 1.28204,4.28317c0.15441,0.13258 0.3517,0.24832 0.5685,0.35705l38.04473,34.75074c-0.15441,4.26563 -1.33663,7.41803 -3.57084,9.42774c-2.40265,2.16052 -6.12634,3.23938 -11.17261,3.23938c-0.52171,0 -1.0247,-0.01543 -1.51911,-0.03928c-0.04055,-0.03367 -0.0694,-0.07786 -0.11308,-0.11083l-14.17963,-12.7548c-0.93657,-0.69445 -2.70757,-1.04378 -5.31063,-1.04378c-2.19756,0 -3.74552,0.34863 -4.63998,1.04378c-0.8968,0.69726 -1.34365,1.99568 -1.34365,3.89946c0,4.98043 2.29894,9.44527 6.89915,13.39945c0.02807,0.02455 0.05849,0.0463 0.08734,0.07015l26.20147,23.57425l55.49496,0l0,-55.34024l0,0l0,0.0007z"/>
   <path stroke="null" id="svg_10" fill="url(#SVGID_10_)" d="m390.45797,213.30547l-381.64357,0c-4.86769,0 -8.81441,-3.55013 -8.81441,-7.928c0,-4.37857 3.94671,-7.9287 8.81441,-7.9287l381.64357,0c4.86769,0 8.81441,3.55013 8.81441,7.9287c0,4.37786 -3.94671,7.928 -8.81441,7.928z"/>
   <path stroke="null" id="svg_11" fill="url(#SVGID_11_)" d="m260.90812,110.8483l-50.89319,-45.79045c-1.18144,-0.69445 -2.50325,-1.04378 -3.96855,-1.04378c-1.30309,0 -2.40187,0.40334 -3.29634,1.20863l-12.69873,10.98289c-1.71016,1.0978 -2.56408,2.59894 -2.56408,4.50273c0,1.17215 0.42735,2.25101 1.28204,3.23938l10.07227,9.0742l0,47.54272c0,1.13147 0.59267,2.03847 1.77021,2.7252l60.29559,54.23683l0,-86.67835l0.00078,0z"/>
   <path stroke="null" id="svg_12" fill="#FFFFFF" d="m187.48723,80.70831c0,-1.90379 0.85469,-3.40493 2.56408,-4.50273l12.69873,-10.98289c0.89446,-0.80458 1.99324,-1.20863 3.29634,-1.20863c1.4653,0 2.78711,0.34863 3.96855,1.04378c1.17832,0.69726 1.77021,1.63021 1.77021,2.80096l0,72.7065c0,1.17286 -0.65272,2.10581 -1.95347,2.80096c-1.30387,0.69726 -2.80816,1.04378 -4.51833,1.04378c-1.79127,0 -3.31739,-0.34653 -4.57838,-1.04378c-1.26332,-0.69516 -1.89264,-1.62811 -1.89264,-2.80096l0,-61.06423l-4.27346,4.83242c-0.81414,0.73303 -1.70938,1.0985 -2.68573,1.0985c-1.22121,0 -2.25838,-0.49454 -3.11386,-1.4829c-0.85469,-0.98907 -1.28204,-2.06863 -1.28204,-3.24078z"/>
   <path stroke="null" id="svg_13" fill="url(#SVGID_12_)" d="m138.36425,133.7772l-42.95765,-38.6446c-5.08682,-4.08044 -11.25371,-6.12101 -18.49754,-6.12101c-6.83676,0 -12.71979,1.81189 -17.64285,5.43708c-4.92618,3.62379 -7.38654,8.29206 -7.38654,14.00271c0,3.0591 0.98414,5.02953 2.94307,5.9218l18.22772,16.39612c0.01872,0.03157 0.03821,0.06243 0.05771,0.094l-8.77463,5.74503c-3.88589,2.56036 -7.15805,5.41253 -9.81337,8.55651c-2.65532,3.14468 -3.98337,6.36162 -3.98337,9.65291l0,10.63917c0,1.0985 0.62542,2.01111 1.87939,2.74204l42.83288,38.52885l43.11596,0l0,-72.95061l-0.00078,0z"/>
   <g stroke="null" id="svg_14">
    <path stroke="null" id="svg_15" fill="#FFFFFF" d="m49.7562,165.45691l0,-10.63987c0,-3.29059 1.32805,-6.50822 3.98337,-9.65291c2.65532,-3.14398 5.92748,-5.99545 9.81337,-8.55651l11.72161,-7.67406c3.90694,-2.55685 7.22277,-5.37114 9.95062,-8.44147c2.72628,-3.06822 4.08942,-6.13855 4.08942,-9.20818c0,-3.06822 -1.11983,-5.75415 -3.35716,-8.05707c-2.24045,-2.30082 -5.51573,-3.45263 -9.82896,-3.45263c-3.66208,0 -6.63478,0.9091 -8.91266,2.72661c-2.27944,1.8175 -3.41877,4.50693 -3.41877,8.06759c0,1.16303 -0.63166,2.18297 -1.89186,3.05489c-1.26332,0.87193 -2.91188,1.30754 -4.94567,1.30754c-3.90694,0 -5.86041,-2.15912 -5.86041,-6.47946c0,-5.71136 2.46036,-10.37893 7.38654,-14.00271c4.92384,-3.62449 10.80609,-5.43708 17.64285,-5.43708c7.24305,0 13.40994,2.04057 18.49754,6.12101c5.08604,4.08114 7.63141,9.35408 7.63141,15.82372c0,4.38628 -1.36392,8.49619 -4.0902,12.33392c-2.72862,3.83703 -6.02496,7.08834 -9.89057,9.75532c-3.86639,2.66839 -7.73434,5.18946 -11.59917,7.56393c-3.86639,2.37447 -7.16351,4.76928 -9.88979,7.18023c-2.72862,2.41235 -4.08942,4.75105 -4.08942,7.01679l0,4.16462l35.89708,0c1.13933,0 2.13673,0.49454 2.99142,1.4829c0.85469,0.98907 1.28204,2.17946 1.28204,3.56907c0,1.39171 -0.42579,2.61858 -1.27424,3.6792c-0.84923,1.06202 -1.83884,1.59233 -2.97115,1.59233l-43.16821,0c-1.29296,0 -2.56798,-0.36547 -3.81882,-1.0964c-1.25474,-0.73023 -1.88017,-1.64284 -1.88017,-2.74134z"/>
    <path stroke="null" id="svg_16" fill="#FFFFFF" d="m293.98924,169.68326c0,-1.90308 0.44606,-3.2022 1.34365,-3.89946c0.89368,-0.69445 2.44164,-1.04378 4.63998,-1.04378c2.60385,0 4.37406,0.34863 5.31063,1.04378c0.93501,0.69726 1.40447,1.81189 1.40447,3.35021c0,2.63612 1.23993,4.88643 3.72446,6.75444c2.48142,1.86661 6.04367,2.80096 10.68366,2.80096c5.04627,0 8.76996,-1.07956 11.17261,-3.23938c2.39953,-2.15842 3.60125,-5.61806 3.60125,-10.37893l0,-2.08687c0,-7.9792 -4.96595,-11.97126 -14.89629,-11.97126c-2.76839,0 -4.15103,-1.51868 -4.15103,-4.55744c0,-3.11101 1.38342,-4.66757 4.15103,-4.66757c4.15181,0 7.30544,-0.84106 9.46244,-2.52669c2.15623,-1.68282 3.23551,-4.86819 3.23551,-9.5547c0,-7.54008 -4.07071,-11.31258 -12.209,-11.31258c-4.55966,0 -7.81467,0.85509 -9.76814,2.56036c-1.95347,1.70737 -2.9306,3.83142 -2.9306,6.37284c0,3.12294 -2.03535,4.68511 -6.10528,4.68511c-2.76839,0 -4.57916,-0.36547 -5.43307,-1.0985c-0.85391,-0.73093 -1.28204,-2.15842 -1.28204,-4.28317c0,-1.97674 0.40629,-3.95418 1.22121,-5.93092c0.81258,-1.97674 2.13673,-3.95418 3.96777,-5.93092c1.83182,-1.97674 4.51833,-3.58661 8.05875,-4.83242c3.54042,-1.2444 7.6704,-1.86661 12.39226,-1.86661c16.36081,0 24.54199,6.55452 24.54199,19.65865c0,4.45573 -0.87575,8.28925 -2.6249,11.50128c-1.7515,3.21273 -4.13231,5.47566 -7.14245,6.79021c8.30284,2.92442 12.45387,8.59018 12.45387,16.99939l0,2.08336c0,8.2633 -2.56408,14.31346 -7.69301,18.1526c-5.12815,3.83914 -11.84248,5.75765 -20.1461,5.75765c-8.79023,0 -15.4874,-1.97674 -20.08449,-5.93092c-4.60021,-3.95418 -6.89915,-8.41902 -6.89915,-13.39875z"/>
   </g>
   <g stroke="null" id="svg_17"/>
   <g stroke="null" id="svg_18"/>
   <g stroke="null" id="svg_19"/>
   <g stroke="null" id="svg_20"/>
   <g stroke="null" id="svg_21"/>
   <g stroke="null" id="svg_22"/>
   <g stroke="null" id="svg_23"/>
   <g stroke="null" id="svg_24"/>
   <g stroke="null" id="svg_25"/>
   <g stroke="null" id="svg_26"/>
   <g stroke="null" id="svg_27"/>
   <g stroke="null" id="svg_28"/>
   <g stroke="null" id="svg_29"/>
   <g stroke="null" id="svg_30"/>
   <g stroke="null" id="svg_31"/>
  </g>
 </g>
</svg>