<svg width="784" height="487" viewBox="0 0 784 487" fill="none" xmlns="http://www.w3.org/2000/svg">
<rect width="784" height="487" fill="white"/>
<path d="M489.63 134.96H635.63C663.244 134.96 685.63 157.346 685.63 184.96V334.071H489.63V134.96Z" fill="url(#paint0_linear)" fill-opacity="0.8"/>
<path d="M489.63 134.96H635.63C663.244 134.96 685.63 157.346 685.63 184.96V334.071H489.63V134.96Z" fill="url(#paint1_linear)" fill-opacity="0.8"/>
<path d="M574.622 226.444H584.396C590.536 226.35 595.365 224.733 598.88 221.593C602.396 218.452 604.154 214.21 604.154 208.866C604.154 196.866 598.177 190.866 586.224 190.866C580.599 190.866 576.099 192.483 572.724 195.718C569.396 198.905 567.732 203.147 567.732 208.444H554.724C554.724 200.335 557.677 193.608 563.583 188.264C569.536 182.874 577.083 180.179 586.224 180.179C595.88 180.179 603.45 182.733 608.935 187.843C614.419 192.952 617.161 200.054 617.161 209.147C617.161 213.6 615.708 217.913 612.802 222.085C609.943 226.257 606.029 229.374 601.06 231.436C606.685 233.218 611.021 236.171 614.068 240.296C617.161 244.421 618.708 249.46 618.708 255.413C618.708 264.6 615.708 271.889 609.708 277.28C603.708 282.671 595.904 285.366 586.294 285.366C576.685 285.366 568.857 282.764 562.81 277.561C556.81 272.358 553.81 265.491 553.81 256.96H566.888C566.888 262.35 568.646 266.663 572.161 269.897C575.677 273.132 580.388 274.749 586.294 274.749C592.575 274.749 597.38 273.108 600.708 269.827C604.036 266.546 605.7 261.835 605.7 255.694C605.7 249.741 603.872 245.171 600.216 241.983C596.56 238.796 591.286 237.155 584.396 237.061H574.622V226.444Z" fill="white"/>
<path d="M97.6301 126.354C97.6301 98.7401 120.016 76.3543 147.63 76.3543H293.63V334.071H97.6301V126.354Z" fill="url(#paint2_angular)" fill-opacity="0.8"/>
<path d="M97.6301 126.255C97.6301 98.6411 120.016 76.2553 147.63 76.2553H293.63V334.071H97.6301V126.255Z" fill="url(#paint3_linear)" fill-opacity="0.8"/>
<path d="M230.786 254.354H163.708V245.003L199.146 205.628C204.396 199.675 208.005 194.846 209.974 191.143C211.99 187.393 212.997 183.526 212.997 179.542C212.997 174.198 211.38 169.815 208.146 166.393C204.911 162.971 200.599 161.261 195.208 161.261C188.74 161.261 183.7 163.112 180.091 166.815C176.529 170.471 174.747 175.581 174.747 182.143H161.74C161.74 172.721 164.763 165.104 170.81 159.292C176.904 153.479 185.036 150.573 195.208 150.573C204.724 150.573 212.247 153.081 217.779 158.096C223.31 163.065 226.075 169.698 226.075 177.995C226.075 188.073 219.654 200.073 206.81 213.995L179.388 243.737H230.786V254.354Z" fill="white"/>
<path d="M293.63 49.9999C293.63 22.3857 316.016 0 343.63 0H439.63C467.244 0 489.63 22.3858 489.63 50V334.071H293.63V49.9999Z" fill="url(#paint4_linear)"/>
<path d="M293.63 49.9999C293.63 22.3857 316.016 0 343.63 0H439.63C467.244 0 489.63 22.3858 489.63 50V334.071H293.63V49.9999Z" fill="url(#paint5_linear)" fill-opacity="0.8"/>
<path d="M402.458 216H389.38V129.305L363.154 138.938V127.125L400.419 113.133H402.458V216Z" fill="white"/>
<path d="M0.00744629 384.071C0.00744629 356.457 22.3932 334.071 50.0075 334.071H130.667V487H50.0075C22.3932 487 0.00744629 464.614 0.00744629 437V384.071Z" fill="url(#paint6_linear)"/>
<path d="M88.3255 425.688H102.529V436.305H88.3255V460.071H75.2474V436.305H28.6302V428.641L74.474 357.696H88.3255V425.688ZM43.3958 425.688H75.2474V375.485L73.7005 378.297L43.3958 425.688Z" fill="white"/>
<path d="M130.674 334.071H261.333V487H130.674V334.071Z" fill="url(#paint7_linear)"/>
<path d="M170.055 408.743L175.258 357.696H227.711V369.719H186.297L183.203 397.633C188.219 394.68 193.914 393.204 200.289 393.204C209.617 393.204 217.024 396.297 222.508 402.485C227.992 408.626 230.734 416.946 230.734 427.446C230.734 437.993 227.875 446.313 222.156 452.407C216.484 458.454 208.539 461.477 198.32 461.477C189.274 461.477 181.891 458.969 176.172 453.954C170.453 448.938 167.195 442.001 166.399 433.141H178.703C179.5 439.001 181.586 443.43 184.961 446.43C188.336 449.383 192.789 450.86 198.32 450.86C204.367 450.86 209.102 448.797 212.524 444.672C215.992 440.547 217.727 434.852 217.727 427.587C217.727 420.743 215.852 415.258 212.102 411.133C208.399 406.962 203.453 404.876 197.266 404.876C191.594 404.876 187.141 406.118 183.906 408.602L180.461 411.415L170.055 408.743Z" fill="white"/>
<path d="M261.341 334.071H392V487H261.341V334.071Z" fill="url(#paint8_linear)"/>
<path d="M345.792 357.626V368.665H343.401C333.276 368.852 325.213 371.852 319.213 377.665C313.213 383.477 309.745 391.657 308.807 402.204C314.198 396.016 321.557 392.922 330.885 392.922C339.792 392.922 346.893 396.063 352.19 402.344C357.534 408.626 360.206 416.735 360.206 426.672C360.206 437.219 357.323 445.657 351.557 451.985C345.838 458.313 338.151 461.477 328.495 461.477C318.698 461.477 310.753 457.727 304.659 450.227C298.565 442.68 295.518 432.977 295.518 421.118V416.126C295.518 397.282 299.526 382.891 307.542 372.954C315.604 362.969 327.581 357.86 343.471 357.626H345.792ZM328.706 403.751C324.253 403.751 320.151 405.087 316.401 407.758C312.651 410.43 310.049 413.782 308.596 417.813V422.594C308.596 431.032 310.495 437.829 314.292 442.985C318.088 448.141 322.823 450.719 328.495 450.719C334.354 450.719 338.948 448.563 342.276 444.251C345.651 439.938 347.338 434.29 347.338 427.305C347.338 420.274 345.628 414.602 342.206 410.29C338.831 405.93 334.331 403.751 328.706 403.751Z" fill="white"/>
<path d="M392.007 334.071H522.667V487H392.007V334.071Z" fill="url(#paint9_linear)"/>
<path d="M491.505 365.008L449.107 460.071H435.466L477.724 368.383H422.318V357.696H491.505V365.008Z" fill="white"/>
<path d="M522.674 334H653.333V486.929H522.674V334Z" fill="url(#paint10_linear)"/>
<path d="M618.164 384.344C618.164 389.453 616.805 394 614.086 397.984C611.414 401.969 607.781 405.086 603.187 407.336C608.531 409.633 612.75 412.984 615.844 417.391C618.984 421.797 620.555 426.789 620.555 432.367C620.555 441.227 617.555 448.281 611.555 453.531C605.602 458.781 597.75 461.406 588 461.406C578.156 461.406 570.258 458.781 564.305 453.531C558.398 448.234 555.445 441.18 555.445 432.367C555.445 426.836 556.945 421.844 559.945 417.391C562.992 412.938 567.187 409.562 572.531 407.266C567.984 405.016 564.398 401.898 561.773 397.914C559.148 393.93 557.836 389.406 557.836 384.344C557.836 375.719 560.602 368.875 566.133 363.812C571.664 358.75 578.953 356.219 588 356.219C597 356.219 604.266 358.75 609.797 363.812C615.375 368.875 618.164 375.719 618.164 384.344ZM607.547 432.086C607.547 426.367 605.719 421.703 602.062 418.094C598.453 414.484 593.719 412.68 587.859 412.68C582 412.68 577.289 414.461 573.727 418.023C570.211 421.586 568.453 426.273 568.453 432.086C568.453 437.898 570.164 442.469 573.586 445.797C577.055 449.125 581.859 450.789 588 450.789C594.094 450.789 598.875 449.125 602.344 445.797C605.812 442.422 607.547 437.852 607.547 432.086ZM588 366.906C582.891 366.906 578.742 368.5 575.555 371.688C572.414 374.828 570.844 379.117 570.844 384.555C570.844 389.758 572.391 393.977 575.484 397.211C578.625 400.398 582.797 401.992 588 401.992C593.203 401.992 597.352 400.398 600.445 397.211C603.586 393.977 605.156 389.758 605.156 384.555C605.156 379.352 603.539 375.109 600.305 371.828C597.07 368.547 592.969 366.906 588 366.906Z" fill="white"/>
<path d="M653.341 334H734C761.614 334 784 356.386 784 384V436.929C784 464.543 761.614 486.929 734 486.929H653.341V334Z" fill="url(#paint11_linear)"/>
<path d="M736.596 415C733.878 418.234 730.62 420.836 726.823 422.805C723.073 424.773 718.948 425.758 714.448 425.758C708.542 425.758 703.385 424.305 698.979 421.398C694.62 418.492 691.245 414.414 688.854 409.164C686.464 403.867 685.268 398.031 685.268 391.656C685.268 384.812 686.557 378.648 689.135 373.164C691.76 367.68 695.464 363.484 700.245 360.578C705.026 357.672 710.604 356.219 716.979 356.219C727.104 356.219 735.073 360.016 740.885 367.609C746.745 375.156 749.674 385.469 749.674 398.547V402.344C749.674 422.266 745.737 436.82 737.862 446.008C729.987 455.148 718.104 459.836 702.214 460.07H699.682V449.102H702.424C713.159 448.914 721.409 446.125 727.174 440.734C732.94 435.297 736.081 426.719 736.596 415ZM716.557 415C720.917 415 724.924 413.664 728.581 410.992C732.284 408.32 734.979 405.016 736.667 401.078V395.875C736.667 387.344 734.815 380.406 731.112 375.062C727.409 369.719 722.721 367.047 717.049 367.047C711.331 367.047 706.737 369.25 703.268 373.656C699.799 378.016 698.065 383.781 698.065 390.953C698.065 397.938 699.729 403.703 703.057 408.25C706.432 412.75 710.932 415 716.557 415Z" fill="white"/>
<defs>
<linearGradient id="paint0_linear" x1="489.63" y1="135.131" x2="565.661" y2="249.457" gradientUnits="userSpaceOnUse">
<stop stop-color="#E24786"/>
<stop offset="1" stop-color="#FF7BAC"/>
</linearGradient>
<linearGradient id="paint1_linear" x1="685.63" y1="234.281" x2="646.43" y2="234.281" gradientUnits="userSpaceOnUse">
<stop stop-opacity="0.2"/>
<stop offset="1" stop-opacity="0"/>
</linearGradient>
<radialGradient id="paint2_angular" cx="0" cy="0" r="1" gradientUnits="userSpaceOnUse" gradientTransform="translate(195.63 205.212) rotate(179.852) scale(98.0003 128.859)">
<stop stop-color="#207DB7"/>
<stop offset="0.0001" stop-color="#207DB7"/>
<stop offset="1" stop-color="#29A6F3"/>
</radialGradient>
<linearGradient id="paint3_linear" x1="293.63" y1="204.86" x2="254.43" y2="204.86" gradientUnits="userSpaceOnUse">
<stop stop-opacity="0.2"/>
<stop offset="1" stop-opacity="0"/>
</linearGradient>
<linearGradient id="paint4_linear" x1="391.26" y1="304.969" x2="391.26" y2="334.071" gradientUnits="userSpaceOnUse">
<stop stop-color="#9EB644"/>
<stop offset="1" stop-color="#869929"/>
</linearGradient>
<linearGradient id="paint5_linear" x1="489.63" y1="166.642" x2="450.43" y2="166.642" gradientUnits="userSpaceOnUse">
<stop stop-opacity="0.2"/>
<stop offset="1" stop-opacity="0"/>
</linearGradient>
<linearGradient id="paint6_linear" x1="65.3371" y1="334.071" x2="65.3371" y2="487" gradientUnits="userSpaceOnUse">
<stop stop-color="#FFB800"/>
<stop offset="1" stop-color="#C1A251"/>
</linearGradient>
<linearGradient id="paint7_linear" x1="196.004" y1="334.071" x2="196.004" y2="487" gradientUnits="userSpaceOnUse">
<stop stop-color="#FFB800"/>
<stop offset="1" stop-color="#C1A251"/>
</linearGradient>
<linearGradient id="paint8_linear" x1="326.67" y1="334.071" x2="326.67" y2="487" gradientUnits="userSpaceOnUse">
<stop stop-color="#FFB800"/>
<stop offset="1" stop-color="#C1A251"/>
</linearGradient>
<linearGradient id="paint9_linear" x1="457.337" y1="334.071" x2="457.337" y2="487" gradientUnits="userSpaceOnUse">
<stop stop-color="#FFB800"/>
<stop offset="1" stop-color="#C1A251"/>
</linearGradient>
<linearGradient id="paint10_linear" x1="588.004" y1="334" x2="588.004" y2="486.929" gradientUnits="userSpaceOnUse">
<stop stop-color="#FFB800"/>
<stop offset="1" stop-color="#C1A251"/>
</linearGradient>
<linearGradient id="paint11_linear" x1="718.67" y1="334" x2="718.67" y2="486.929" gradientUnits="userSpaceOnUse">
<stop stop-color="#FFB800"/>
<stop offset="1" stop-color="#C1A251"/>
</linearGradient>
</defs>
</svg>
